<?xml version="1.0" standalone="no"?>
<!DOCTYPE svg PUBLIC "-//W3C//DTD SVG 20010904//EN"
 "http://www.w3.org/TR/2001/REC-SVG-20010904/DTD/svg10.dtd">
<svg version="1.0" xmlns="http://www.w3.org/2000/svg"
 width="1060.000000pt" height="1060.000000pt" viewBox="0 0 1060.000000 1060.000000"
 preserveAspectRatio="xMidYMid meet">
<metadata>
Created by potrace 1.11, written by Peter Selinger 2001-2013
</metadata>
<g transform="translate(0.000000,1060.000000) scale(0.100000,-0.100000)"
fill="#000000" stroke="none">
<path d="M634 8439 c-55 -16 -58 -29 -22 -105 l33 -69 3 -584 2 -583 -22 5
c-19 5 -548 12 -585 8 -25 -2 -43 -59 -43 -133 0 -126 29 -189 114 -245 l48
-33 244 0 244 0 3 -1307 c3 -1292 3 -1309 23 -1379 26 -89 65 -173 99 -218 61
-81 223 -156 379 -176 158 -21 306 14 449 106 87 56 213 176 273 261 67 93
146 267 220 488 l67 198 66 529 66 528 266 0 267 0 -74 -227 c-122 -373 -144
-450 -179 -628 -72 -355 -80 -565 -31 -759 79 -305 242 -460 527 -498 106 -14
245 -1 328 31 72 27 172 101 280 209 91 90 94 92 108 72 37 -52 126 -151 171
-189 108 -90 246 -126 456 -119 96 3 143 10 176 23 63 25 163 91 243 159 l67
58 68 -63 c86 -79 153 -122 232 -149 122 -41 299 -36 426 11 59 22 245 141
278 178 26 29 33 27 41 -11 4 -18 18 -53 30 -78 53 -104 148 -147 285 -128 74
10 112 35 143 91 22 42 22 45 27 652 l5 610 59 145 c84 210 157 352 233 458
127 177 231 262 324 262 54 0 79 -21 106 -90 17 -42 18 -100 18 -830 l0 -785
23 -91 c65 -256 279 -434 523 -434 134 0 306 63 433 159 35 27 68 51 75 55 6
4 26 -4 43 -17 84 -64 246 -128 409 -163 127 -28 329 -25 434 4 98 28 220 85
314 146 49 31 82 46 105 46 55 0 253 37 351 65 272 78 563 305 672 523 31 62
37 86 41 157 4 74 2 89 -22 141 -51 112 -109 164 -180 164 -55 0 -104 -52
-140 -150 -56 -151 -81 -193 -171 -279 -90 -86 -196 -160 -257 -180 -72 -24
-69 -32 -72 219 -2 210 -4 231 -30 320 -48 171 -63 194 -448 733 l-199 278 73
152 73 152 0 115 c0 136 -5 158 -47 205 -45 52 -102 79 -168 79 -144 1 -425
-196 -502 -352 -28 -57 -31 -72 -30 -150 0 -95 25 -189 66 -255 l23 -37 -73
-218 c-71 -210 -304 -975 -304 -998 0 -7 -15 -15 -33 -18 -43 -8 -106 -61
-125 -105 -9 -22 -17 -82 -20 -156 -5 -137 -16 -161 -85 -196 -31 -17 -53 -20
-99 -17 -69 5 -103 26 -138 89 l-25 44 -6 445 c-4 245 -7 617 -8 827 -1 235
-5 402 -12 435 -48 229 -259 388 -514 388 -155 0 -281 -53 -391 -165 -68 -69
-207 -266 -270 -384 l-29 -55 -5 175 c-6 195 -10 209 -79 272 -62 56 -136 89
-212 95 -73 5 -167 -17 -190 -44 -15 -19 -15 -30 0 -457 15 -426 2 -902 -29
-1049 -26 -124 -70 -248 -130 -369 -57 -113 -83 -146 -149 -188 -125 -81 -255
-59 -313 52 -22 41 -22 52 -31 651 -10 688 -8 672 -89 754 -99 101 -361 120
-409 30 -8 -16 -9 -46 -3 -107 5 -47 8 -324 7 -614 l-1 -528 -40 -67 c-50 -85
-135 -165 -209 -199 -75 -35 -178 -37 -239 -6 -84 44 -160 163 -186 288 -20
96 -16 461 5 567 54 271 188 510 399 714 95 92 146 123 292 178 128 49 198 58
366 51 146 -7 156 -6 180 13 23 19 25 26 25 109 0 101 -15 150 -58 199 -42 49
-93 72 -184 85 -109 16 -186 6 -363 -46 -329 -95 -431 -150 -624 -335 -164
-158 -276 -314 -376 -523 -124 -259 -160 -417 -160 -693 0 -199 -15 -277 -79
-408 -96 -196 -220 -264 -375 -206 -68 26 -119 80 -142 152 -26 81 -31 359
-10 524 32 242 108 586 211 949 24 88 45 172 45 186 0 49 -58 144 -129 212
-97 91 -118 97 -365 97 -180 0 -309 8 -433 26 -39 6 -43 9 -57 51 -21 61 -69
134 -116 177 -140 126 -362 136 -488 22 -97 -88 -116 -250 -45 -390 32 -64
117 -152 182 -191 60 -36 57 -10 36 -308 -33 -466 -75 -806 -120 -975 -55
-207 -154 -407 -234 -475 -103 -86 -231 -89 -305 -7 -67 74 -64 15 -71 1361
l-6 1216 613 7 c688 7 640 2 686 83 49 89 80 300 52 354 -13 24 -32 24 -103
-1 -46 -16 -101 -22 -294 -30 -219 -10 -845 -6 -920 6 l-33 5 0 533 c0 551 -3
608 -42 698 -24 56 -58 81 -143 103 -65 17 -259 19 -311 4z m8377 -3175 c139
-170 260 -379 296 -514 25 -93 22 -269 -6 -373 -25 -96 -78 -197 -111 -215
-63 -32 -266 27 -548 159 -85 39 -103 52 -98 66 47 148 230 731 273 863 l55
175 40 -45 c22 -25 67 -77 99 -116z"/>
<path d="M8065 3229 c-16 -5 -43 -19 -59 -32 l-29 -24 19 -31 c21 -36 22 -37
48 -17 25 19 86 19 156 0 75 -20 116 -19 167 6 48 23 50 27 28 70 -13 24 -19
28 -35 19 -26 -14 -86 -12 -150 5 -61 16 -100 18 -145 4z"/>
<path d="M3345 3113 c-22 -2 -55 -6 -72 -9 l-33 -5 0 -364 0 -365 85 0 85 0 0
150 0 150 28 -6 c15 -4 29 -9 32 -11 3 -3 39 -66 80 -141 l75 -137 98 -3 c53
-1 97 -1 97 2 0 17 -158 266 -182 287 l-29 26 29 12 c39 17 77 57 97 105 20
48 21 155 2 193 -51 96 -178 134 -392 116z m185 -138 c58 -30 63 -134 8 -180
-23 -19 -41 -25 -79 -25 l-49 0 0 110 0 110 45 0 c26 0 59 -7 75 -15z"/>
<path d="M2163 3089 c-117 -45 -177 -167 -177 -359 0 -191 58 -309 176 -360
44 -19 65 -22 142 -18 137 6 199 46 251 159 77 169 40 446 -73 539 -73 61
-217 78 -319 39z m202 -142 c44 -44 59 -100 59 -222 0 -118 -15 -178 -54 -217
-24 -23 -37 -28 -80 -28 -45 0 -56 4 -80 30 -38 40 -55 108 -55 220 0 169 43
250 132 250 38 0 50 -5 78 -33z"/>
<path d="M9211 3095 c-133 -38 -198 -139 -208 -326 -10 -169 25 -289 105 -361
53 -48 101 -63 202 -62 102 0 162 24 215 87 61 71 79 133 79 282 1 150 -15
218 -67 287 -64 86 -206 126 -326 93z m176 -158 c41 -46 57 -121 51 -252 -5
-115 -24 -167 -72 -196 -64 -39 -131 -16 -167 58 -21 43 -24 62 -24 173 0 148
17 209 69 241 46 30 102 20 143 -24z"/>
<path d="M910 2730 l0 -370 80 0 80 0 0 150 0 150 120 0 120 0 0 65 0 65 -120
0 -120 0 0 90 0 90 130 0 130 0 0 65 0 65 -210 0 -210 0 0 -370z"/>
<path d="M4809 2866 l-64 -236 -61 228 -61 227 -126 3 -127 3 0 -366 0 -365
75 0 75 0 1 288 0 287 69 -250 c38 -137 74 -267 80 -288 l11 -38 66 3 67 3 75
278 76 278 3 -281 2 -280 75 0 75 0 -2 368 -3 367 -121 3 -121 3 -64 -235z"/>
<path d="M5942 3073 c-5 -15 -67 -178 -136 -362 -69 -183 -126 -337 -126 -343
0 -5 38 -8 87 -6 l87 3 25 78 25 77 111 0 112 0 27 -80 28 -80 94 0 c52 0 94
1 94 3 0 1 -63 166 -139 367 l-138 365 -71 3 c-68 3 -70 2 -80 -25z m88 -212
c0 -15 41 -167 56 -205 5 -14 -4 -16 -65 -16 -39 0 -71 4 -71 8 0 5 11 41 24
80 14 40 28 92 31 117 7 42 25 54 25 16z"/>
<path d="M7113 3080 c-73 -24 -137 -81 -170 -151 -64 -137 -51 -360 27 -468
36 -49 108 -98 159 -107 52 -10 53 -12 26 -51 -27 -41 -25 -53 10 -53 33 0 55
-10 55 -25 0 -16 -22 -25 -60 -25 -26 0 -39 -18 -40 -52 0 -5 32 -8 70 -8 110
0 180 37 180 95 0 35 -19 58 -64 75 -39 15 -24 27 49 41 88 16 98 24 90 66 -3
19 -10 46 -15 59 -9 23 -10 23 -51 9 -52 -19 -139 -19 -182 -1 -75 31 -109
107 -110 241 -1 123 31 197 97 229 38 18 142 22 193 7 l33 -10 15 52 c8 28 15
56 15 63 0 18 -35 25 -155 30 -92 3 -120 1 -172 -16z"/>
<path d="M8005 2738 c-70 -189 -130 -349 -132 -355 -4 -10 16 -13 80 -13 l85
0 27 80 27 80 103 0 104 0 20 -55 c11 -30 23 -66 27 -80 6 -24 8 -25 96 -25
81 0 90 2 85 18 -4 14 -226 609 -252 675 -6 14 -20 17 -75 17 l-68 0 -127
-342z m205 113 c0 -10 13 -61 29 -114 l29 -97 -70 0 c-60 0 -69 2 -64 16 15
40 56 190 56 207 0 10 5 15 10 12 6 -3 10 -14 10 -24z"/>
</g>
</svg>
